<svg width="16" height="13" viewBox="0 0 16 13" fill="none" xmlns="http://www.w3.org/2000/svg">
<path d="M14.5 0.193848C15.3125 0.193848 16 0.881348 16 1.69385C16 2.19385 15.75 2.63135 15.375 2.9126L8.59375 8.00635C8.21875 8.2876 7.75 8.2876 7.375 8.00635L0.59375 2.9126C0.21875 2.63135 0 2.19385 0 1.69385C0 0.881348 0.65625 0.193848 1.5 0.193848H14.5ZM6.78125 8.81885C7.5 9.3501 8.46875 9.3501 9.1875 8.81885L16 3.69385V10.1938C16 11.3188 15.0938 12.1938 14 12.1938H2C0.875 12.1938 0 11.3188 0 10.1938V3.69385L6.78125 8.81885Z" fill="url(#paint0_linear_75498_25)"/>
<defs>
<linearGradient id="paint0_linear_75498_25" x1="1.94083" y1="-5.80614" x2="16.2048" y2="-5.011" gradientUnits="userSpaceOnUse">
<stop stop-color="#DF5950"/>
<stop offset="1" stop-color="#451046"/>
</linearGradient>
</defs>
</svg>
