<svg width="12" height="16" viewBox="0 0 12 16" fill="none" xmlns="http://www.w3.org/2000/svg">
<path d="M10 0H2C1.15625 0 0.5 0.6875 0.5 1.5V14.5C0.5 15.3438 1.15625 16 2 16H10C10.8125 16 11.5 15.3438 11.5 14.5V1.5C11.5 0.6875 10.8125 0 10 0ZM7.5 14C7.5 14.2812 7.25 14.5 7 14.5H4.96875C4.71875 14.5 4.5 14.2812 4.5 14C4.5 13.75 4.71875 13.5 5 13.5H7C7.25 13.5 7.5 13.75 7.5 14Z" fill="url(#paint0_linear_75498_26)"/>
<defs>
<linearGradient id="paint0_linear_75498_26" x1="1.45562" y1="-3.99999" x2="12.1681" y2="-3.55211" gradientUnits="userSpaceOnUse">
<stop stop-color="#DF5950"/>
<stop offset="1" stop-color="#451046"/>
</linearGradient>
</defs>
</svg>
