<svg width="69" height="101" viewBox="0 0 69 101" fill="none" xmlns="http://www.w3.org/2000/svg">
<path d="M59.5 0.5H9.5C4.22656 0.5 0.125 4.79688 0.125 9.875V91.125C0.125 96.3984 4.22656 100.5 9.5 100.5H59.5C64.5781 100.5 68.875 96.3984 68.875 91.125V9.875C68.875 4.79688 64.5781 0.5 59.5 0.5ZM43.875 88C43.875 89.7578 42.3125 91.125 40.75 91.125H28.0547C26.4922 91.125 25.125 89.7578 25.125 88C25.125 86.4375 26.4922 84.875 28.25 84.875H40.75C42.3125 84.875 43.875 86.4375 43.875 88Z" fill="url(#paint0_linear_75500_3)"/>
<defs>
<linearGradient id="paint0_linear_75500_3" x1="4.66575" y1="-1.0863e-05" x2="69.5147" y2="3.62525" gradientUnits="userSpaceOnUse">
<stop stop-color="#C89AFC"/>
<stop offset="1" stop-color="#7C6AFA"/>
</linearGradient>
</defs>
</svg>
